<svg width="25" height="24" viewBox="0 0 25 24" fill="none" xmlns="http://www.w3.org/2000/svg">
<path d="M18.0168 8.99905C17.1215 8.99866 16.2401 9.22011 15.4514 9.64358C15.3794 9.454 15.2514 9.29081 15.0845 9.17569C14.9176 9.06056 14.7196 8.99895 14.5168 8.99905H10.5168C10.3855 8.99897 10.2554 9.02479 10.134 9.07501C10.0127 9.12524 9.9024 9.1989 9.80953 9.29177C9.71666 9.38465 9.643 9.49491 9.59277 9.61627C9.54254 9.73763 9.51673 9.8677 9.5168 9.99905V21.999C9.51673 22.1304 9.54254 22.2605 9.59277 22.3818C9.643 22.5032 9.71665 22.6134 9.80953 22.7063C9.9024 22.7992 10.0127 22.8729 10.134 22.9231C10.2554 22.9733 10.3855 22.9991 10.5168 22.999H14.5168C14.6481 22.9991 14.7782 22.9733 14.8996 22.9231C15.0209 22.8729 15.1312 22.7992 15.2241 22.7063C15.317 22.6134 15.3906 22.5032 15.4408 22.3818C15.4911 22.2605 15.5169 22.1304 15.5168 21.999V16.499C15.5168 16.2338 15.6222 15.9795 15.8097 15.7919C15.9972 15.6044 16.2516 15.499 16.5168 15.499C16.782 15.499 17.0364 15.6044 17.2239 15.7919C17.4114 15.9795 17.5168 16.2338 17.5168 16.499V21.999C17.5167 22.1304 17.5425 22.2605 17.5928 22.3818C17.643 22.5032 17.7167 22.6134 17.8095 22.7063C17.9024 22.7992 18.0127 22.8729 18.134 22.9231C18.2554 22.9733 18.3855 22.9991 18.5168 22.999H22.5168C22.6481 22.9991 22.7782 22.9733 22.8996 22.9231C23.0209 22.8729 23.1312 22.7992 23.2241 22.7063C23.317 22.6134 23.3906 22.5032 23.4408 22.3818C23.4911 22.2605 23.5169 22.1304 23.5168 21.999V14.499C23.515 13.0409 22.9349 11.643 21.9039 10.612C20.8728 9.5809 19.4749 9.00086 18.0168 8.99905V8.99905ZM21.5168 20.999H19.5168V16.499C19.5168 15.7034 19.2007 14.9403 18.6381 14.3777C18.0755 13.8151 17.3125 13.499 16.5168 13.499C15.7212 13.499 14.9581 13.8151 14.3955 14.3777C13.8329 14.9403 13.5168 15.7034 13.5168 16.499V20.999H11.5168V10.999H13.5168V11.7022C13.5169 11.9094 13.5814 12.1114 13.7013 12.2804C13.8211 12.4494 13.9905 12.577 14.186 12.6456C14.3816 12.7142 14.5935 12.7205 14.7927 12.6634C14.9919 12.6064 15.1685 12.4889 15.2981 12.3272C15.7468 11.7572 16.3624 11.3416 17.0588 11.1384C17.7552 10.9352 18.4977 10.9546 19.1825 11.1938C19.8674 11.4329 20.4605 11.88 20.879 12.4726C21.2974 13.0652 21.5204 13.7736 21.5168 14.499V20.999ZM7.5168 8.99905H3.51681C3.38546 8.99897 3.25539 9.02479 3.13403 9.07501C3.01267 9.12524 2.9024 9.1989 2.80953 9.29177C2.71666 9.38465 2.643 9.49491 2.59277 9.61627C2.54254 9.73763 2.51673 9.8677 2.51681 9.99905V21.999C2.51673 22.1304 2.54254 22.2605 2.59277 22.3818C2.643 22.5032 2.71665 22.6134 2.80953 22.7063C2.9024 22.7992 3.01267 22.8729 3.13403 22.9231C3.25539 22.9733 3.38546 22.9991 3.51681 22.999H7.5168C7.64815 22.9991 7.77822 22.9733 7.89958 22.9231C8.02094 22.8729 8.13121 22.7992 8.22408 22.7063C8.31696 22.6134 8.39061 22.5032 8.44084 22.3818C8.49107 22.2605 8.51688 22.1304 8.5168 21.999V9.99905C8.51688 9.8677 8.49107 9.73763 8.44084 9.61627C8.39061 9.49491 8.31695 9.38465 8.22408 9.29177C8.13121 9.1989 8.02094 9.12524 7.89958 9.07501C7.77822 9.02479 7.64815 8.99897 7.5168 8.99905V8.99905ZM6.5168 20.999H4.51681V10.999H6.5168V20.999ZM5.53145 1.54205C5.09382 1.51585 4.65542 1.57894 4.24293 1.72749C3.83044 1.87604 3.45248 2.10694 3.13202 2.40614C2.81157 2.70534 2.55532 3.0666 2.37886 3.46795C2.20241 3.86929 2.10943 4.30233 2.10558 4.74074C2.10174 5.17914 2.1871 5.61375 2.35649 6.01813C2.52588 6.42251 2.77575 6.78821 3.0909 7.09299C3.40606 7.39777 3.77991 7.63526 4.18973 7.79102C4.59955 7.94678 5.03677 8.01756 5.47481 7.99905H5.50312C5.94192 8.02511 6.38143 7.96143 6.79478 7.8119C7.20813 7.66236 7.58666 7.43012 7.90723 7.12936C8.22779 6.82859 8.48366 6.46562 8.65921 6.06263C8.83476 5.65963 8.92629 5.22507 8.92822 4.78551C8.93015 4.34594 8.84243 3.9106 8.67042 3.50608C8.49842 3.10156 8.24574 2.73636 7.92782 2.43279C7.60991 2.12923 7.23344 1.89367 6.82141 1.74052C6.40938 1.58737 5.97045 1.51983 5.53144 1.54205H5.53145ZM5.50314 5.99905H5.47481C5.30187 6.02005 5.12645 6.00383 4.9603 5.95147C4.79414 5.89912 4.64111 5.81185 4.51145 5.69551C4.38179 5.57917 4.2785 5.43645 4.20852 5.27692C4.13853 5.11739 4.10347 4.94475 4.10568 4.77056C4.10568 4.02446 4.66524 3.54204 5.53145 3.54204C5.70615 3.51875 5.88381 3.53317 6.05247 3.58432C6.22113 3.63548 6.37686 3.72218 6.50919 3.83859C6.64152 3.955 6.74736 4.09842 6.81959 4.25918C6.89183 4.41994 6.92877 4.59431 6.92793 4.77056C6.92793 5.51665 6.36836 5.99905 5.50314 5.99905Z" fill="#F1F1F1" fill-opacity="0.7"/>
</svg>
