<?xml version="1.0" standalone="no"?>
<!DOCTYPE svg PUBLIC "-//W3C//DTD SVG 20010904//EN"
 "http://www.w3.org/TR/2001/REC-SVG-20010904/DTD/svg10.dtd">
<svg version="1.0" xmlns="http://www.w3.org/2000/svg"
 width="700.000000pt" height="700.000000pt" viewBox="0 0 700.000000 700.000000"
 preserveAspectRatio="xMidYMid meet">
<metadata>
Created by potrace 1.14, written by Peter Selinger 2001-2017
</metadata>
<g transform="translate(0.000000,700.000000) scale(0.100000,-0.100000)"
fill="#000000" stroke="none">
<path d="M3278 6995 c-1 -1 -42 -5 -89 -9 -47 -4 -95 -8 -105 -10 -10 -2 -41
-7 -69 -10 -27 -4 -72 -11 -100 -16 -27 -5 -61 -12 -75 -14 -148 -27 -274 -61
-458 -122 -73 -24 -152 -52 -175 -63 -23 -10 -62 -27 -87 -37 -223 -93 -516
-264 -725 -423 -185 -141 -384 -327 -536 -501 -273 -313 -493 -684 -637 -1070
-79 -211 -146 -462 -176 -655 -2 -16 -8 -50 -12 -75 -20 -131 -29 -272 -29
-495 1 -191 7 -339 19 -402 2 -10 7 -43 10 -74 4 -31 9 -67 11 -80 3 -13 7
-37 9 -54 3 -16 14 -72 26 -124 116 -520 324 -966 649 -1391 64 -83 77 -100
156 -189 109 -126 342 -343 485 -454 332 -257 759 -473 1171 -591 128 -37 373
-90 469 -102 30 -3 66 -8 80 -10 134 -19 546 -26 715 -11 347 31 673 111 1018
248 107 43 420 200 447 224 9 8 20 15 24 15 4 0 39 21 79 47 321 207 606 463
862 774 47 57 235 323 235 333 0 3 18 34 41 68 59 92 210 404 263 545 109 291
186 625 214 933 14 153 4 692 -13 720 -2 3 -6 30 -9 60 -3 30 -8 64 -10 75 -2
11 -11 61 -20 110 -135 735 -556 1462 -1146 1977 -107 93 -424 328 -443 328
-3 0 -25 13 -49 29 -67 45 -300 165 -429 220 -232 99 -564 198 -759 227 -19 3
-60 9 -91 15 -31 5 -81 12 -110 15 -30 3 -67 8 -84 10 -34 5 -541 14 -547 9z
m582 -1685 c137 -47 250 -123 331 -222 38 -48 388 -639 601 -1018 61 -108 254
-441 274 -472 13 -21 24 -40 24 -43 0 -2 28 -51 62 -107 112 -188 149 -275
163 -378 17 -124 10 -208 -29 -324 -92 -272 -342 -454 -625 -454 -194 0 -362
69 -499 207 -60 61 -117 145 -212 316 -12 22 -44 77 -71 123 -27 45 -49 84
-49 86 0 2 -28 51 -61 108 -34 56 -70 117 -80 134 -26 46 -416 722 -524 909
-51 88 -102 178 -113 200 -79 158 -82 382 -5 554 35 81 89 157 158 225 77 76
155 123 259 158 73 23 93 26 206 23 99 -2 139 -7 190 -25z m-1670 -1734 c115
-24 219 -71 300 -134 338 -265 368 -748 65 -1048 -450 -447 -1210 -111 -1188
524 13 368 329 670 698 666 50 0 106 -4 125 -8z"/>
</g>
</svg>
