<svg width="25" height="24" viewBox="0 0 25 24" fill="none" xmlns="http://www.w3.org/2000/svg">
<path d="M10.1413 20.5031C10.1413 20.3564 10.109 20.2115 10.0468 20.0787C9.98454 19.946 9.89385 19.8285 9.78114 19.7346C9.66843 19.6408 9.53647 19.5729 9.39459 19.5357C9.25272 19.4986 9.10441 19.4931 8.96018 19.5197C7.6511 19.7599 5.99827 19.796 5.55881 18.5617C5.17562 17.6057 4.54088 16.7712 3.7219 16.1467C3.66347 16.1149 3.60777 16.0783 3.5554 16.0373C3.48372 15.8482 3.35641 15.6853 3.19026 15.5701C3.02411 15.4548 2.82693 15.3927 2.62473 15.3918H2.61985C2.35545 15.3917 2.10178 15.4963 1.91436 15.6828C1.72694 15.8693 1.62105 16.1225 1.61985 16.3869C1.61594 17.2023 2.43085 17.7248 2.76145 17.9015C3.15129 18.2932 3.4646 18.7542 3.68528 19.2609C4.04954 20.2843 5.10813 21.8371 8.1511 21.6369C8.1521 21.6721 8.15305 21.7053 8.15354 21.7355L8.15793 22.0031C8.15793 22.2683 8.26329 22.5227 8.45082 22.7102C8.63836 22.8978 8.89271 23.0031 9.15793 23.0031C9.42315 23.0031 9.6775 22.8978 9.86504 22.7102C10.0526 22.5227 10.1579 22.2683 10.1579 22.0031L10.153 21.6848C10.1482 21.4952 10.1413 21.2208 10.1413 20.5031ZM20.8083 5.37705C20.8401 5.25205 20.8713 5.11338 20.8987 4.95713C21.0604 3.84272 20.9194 2.70532 20.4905 1.66413C20.4363 1.5284 20.3532 1.40614 20.2468 1.30594C20.1404 1.20573 20.0135 1.13 19.8747 1.08406C19.5187 0.963943 18.2043 0.727613 15.6907 2.33406C13.6012 1.84236 11.4261 1.84236 9.33666 2.33406C6.83323 0.751143 5.52561 0.965943 5.17307 1.07922C5.03093 1.1233 4.90046 1.19863 4.79122 1.29968C4.68197 1.40073 4.59672 1.52495 4.54172 1.66322C4.10402 2.7244 3.96456 3.885 4.1384 5.01966C4.16282 5.14759 4.18918 5.26576 4.21653 5.37415C3.3881 6.47759 2.94684 7.82352 2.96116 9.20325C2.95846 9.51109 2.97264 9.81884 3.00364 10.1251C3.33764 14.7277 6.33764 16.1095 8.42795 16.5841C8.3845 16.7091 8.34495 16.8429 8.30979 16.9845C8.24713 17.2418 8.28906 17.5135 8.42639 17.7399C8.56371 17.9663 8.78523 18.129 9.04236 18.1924C9.29949 18.2557 9.57124 18.2145 9.79803 18.0778C10.0248 17.9411 10.1881 17.72 10.2522 17.463C10.3158 17.1298 10.4789 16.8237 10.7199 16.5851C10.8657 16.4575 10.9712 16.2903 11.0237 16.1038C11.0762 15.9173 11.0733 15.7196 11.0155 15.5347C10.9576 15.3498 10.8473 15.1857 10.6979 15.0624C10.5486 14.939 10.3665 14.8618 10.174 14.84C6.71995 14.4454 5.22043 13.0382 4.99485 9.94154C4.96986 9.69627 4.95861 9.44979 4.96116 9.20326C4.94512 8.21992 5.26999 7.26134 5.88059 6.49037C5.94194 6.41 6.00729 6.33275 6.07639 6.25892C6.19882 6.12193 6.28114 5.95384 6.3143 5.77313C6.34747 5.59241 6.3302 5.40606 6.26439 5.23451C6.19692 5.05404 6.14498 4.86814 6.10912 4.67884C6.02765 4.14056 6.05437 3.59143 6.18772 3.0636C7.05685 3.30908 7.87484 3.70864 8.60272 4.24328C8.72309 4.32346 8.85929 4.37681 9.00209 4.39973C9.14489 4.42264 9.29095 4.41459 9.43036 4.3761C11.4515 3.8276 13.5823 3.82795 15.6032 4.3771C15.7434 4.41554 15.8902 4.42314 16.0336 4.39937C16.177 4.3756 16.3135 4.32103 16.4338 4.23941C17.1582 3.70255 17.9728 3.29941 18.839 3.04898C18.9718 3.56414 19.0015 4.10044 18.9264 4.6271C18.8902 4.83464 18.8336 5.0381 18.7575 5.23453C18.6917 5.40608 18.6744 5.59243 18.7076 5.77315C18.7408 5.95386 18.8231 6.12194 18.9455 6.25894C19.0226 6.34585 19.0998 6.4396 19.1691 6.52749C19.7754 7.28541 20.0948 8.23297 20.071 9.20325C20.0728 9.46286 20.0603 9.72237 20.0334 9.98059C19.8132 13.0363 18.3078 14.4445 14.8376 14.84C14.6451 14.8619 14.4631 14.9393 14.3137 15.0628C14.1643 15.1862 14.054 15.3504 13.9963 15.5354C13.9385 15.7204 13.9357 15.9181 13.9882 16.1047C14.0408 16.2912 14.1464 16.4584 14.2922 16.5861C14.5408 16.8311 14.7043 17.1494 14.7585 17.4943C14.8261 17.762 14.8571 18.0376 14.8508 18.3136V20.6476C14.841 21.295 14.841 21.7804 14.841 22.0031C14.841 22.2683 14.9464 22.5226 15.1339 22.7102C15.3214 22.8977 15.5758 23.0031 15.841 23.0031C16.1062 23.0031 16.3606 22.8977 16.5481 22.7102C16.7357 22.5226 16.841 22.2683 16.841 22.0031C16.841 21.7863 16.841 21.3107 16.8508 20.6632V18.3136C16.8588 17.8714 16.8068 17.4302 16.696 17.0021C16.6643 16.8615 16.6255 16.7227 16.5798 16.5861C18.101 16.3334 19.4833 15.549 20.4804 14.3727C21.4776 13.1964 22.0249 11.7043 22.0251 10.1622C22.058 9.84367 22.0734 9.52352 22.071 9.20325C22.0932 7.82202 21.6483 6.47378 20.8083 5.37707L20.8083 5.37705Z" fill="#F1F1F1" fill-opacity="0.7"/>
</svg>
