<svg width="24" height="24" viewBox="0 0 24 24" fill="none" xmlns="http://www.w3.org/2000/svg">
<path d="M12.0003 6.99999C11.0113 6.99999 10.0446 7.29324 9.2224 7.84264C8.40016 8.39205 7.7593 9.17294 7.38086 10.0866C7.00242 11.0002 6.9034 12.0055 7.09633 12.9754C7.28925 13.9453 7.76546 14.8363 8.46472 15.5355C9.16398 16.2348 10.0549 16.711 11.0248 16.9039C11.9947 17.0968 13 16.9978 13.9137 16.6194C14.8273 16.241 15.6082 15.6001 16.1576 14.7778C16.707 13.9556 17.0003 12.9889 17.0003 12C17.0003 10.6739 16.4735 9.40214 15.5358 8.46446C14.5981 7.52678 13.3263 6.99999 12.0003 6.99999V6.99999ZM12.0003 15C11.4069 15 10.8269 14.824 10.3335 14.4944C9.8402 14.1648 9.45568 13.6962 9.22862 13.148C9.00155 12.5999 8.94214 11.9967 9.0579 11.4147C9.17365 10.8328 9.45938 10.2982 9.87893 9.87867C10.2985 9.45911 10.833 9.17339 11.415 9.05764C11.9969 8.94188 12.6001 9.00129 13.1483 9.22835C13.6965 9.45542 14.165 9.83993 14.4947 10.3333C14.8243 10.8266 15.0003 11.4066 15.0003 12C15.0003 12.7956 14.6842 13.5587 14.1216 14.1213C13.559 14.6839 12.7959 15 12.0003 15ZM17.0003 5.99999C16.8025 5.99999 16.6091 6.05864 16.4447 6.16852C16.2802 6.2784 16.1521 6.43458 16.0764 6.61731C16.0007 6.80003 15.9809 7.0011 16.0195 7.19508C16.0581 7.38906 16.1533 7.56725 16.2931 7.7071C16.433 7.84695 16.6112 7.94219 16.8052 7.98078C16.9991 8.01936 17.2002 7.99956 17.3829 7.92387C17.5657 7.84818 17.7218 7.72001 17.8317 7.55556C17.9416 7.39111 18.0003 7.19777 18.0003 6.99999C18.0003 6.73478 17.8949 6.48042 17.7074 6.29289C17.5198 6.10535 17.2655 5.99999 17.0003 5.99999ZM21.9403 8.23999C21.9237 7.38541 21.7614 6.53994 21.4603 5.73999C21.181 5.01206 20.7518 4.35098 20.2006 3.79969C19.6493 3.2484 18.9882 2.81921 18.2603 2.53999C17.4603 2.23889 16.6148 2.07656 15.7603 2.05999C14.7903 1.99999 14.4703 1.99999 12.0003 1.99999C9.53025 1.99999 9.21025 1.99999 8.24025 2.05999C7.38568 2.07656 6.5402 2.23889 5.74025 2.53999C5.01232 2.81921 4.35125 3.2484 3.79995 3.79969C3.24866 4.35098 2.81947 5.01206 2.54026 5.73999C2.23915 6.53994 2.07682 7.38541 2.06026 8.23999C2.00026 9.21999 2.00026 9.53999 2.00026 12C2.00026 14.46 2.00026 14.78 2.06026 15.76C2.07682 16.6146 2.23915 17.46 2.54026 18.26C2.81947 18.9879 3.24866 19.649 3.79995 20.2003C4.35125 20.7516 5.01232 21.1808 5.74025 21.46C6.5402 21.7611 7.38568 21.9234 8.24025 21.94C9.24025 21.94 9.53025 22 12.0003 22C14.4703 22 14.7903 22 15.7603 21.94C16.6148 21.9234 17.4603 21.7611 18.2603 21.46C18.9882 21.1808 19.6493 20.7516 20.2006 20.2003C20.7518 19.649 21.181 18.9879 21.4603 18.26C21.7614 17.46 21.9237 16.6146 21.9403 15.76C21.9403 14.76 22.0003 14.46 22.0003 12C22.0003 9.53999 22.0003 9.21999 21.9403 8.23999ZM19.9403 15.67C19.9227 16.3046 19.8046 16.9324 19.5903 17.53C19.413 18.0023 19.1329 18.4293 18.7703 18.78C18.4217 19.1428 17.9938 19.4201 17.5203 19.59C16.9213 19.8131 16.2893 19.9348 15.6503 19.95C14.7103 19.95 14.4203 20 11.9903 20C9.56025 20 9.28025 20 8.34025 20C7.70227 19.9835 7.07101 19.8654 6.47025 19.65C5.99791 19.4728 5.57093 19.1927 5.22025 18.83C4.85741 18.4814 4.58017 18.0536 4.41026 17.58C4.18806 16.9842 4.0664 16.3557 4.05026 15.72C4.05026 14.72 4.05026 14.47 4.05026 12.05C4.05026 9.62999 4.05026 9.33999 4.05026 8.37999C4.06749 7.7412 4.1891 7.10953 4.41026 6.50999C4.58281 6.04062 4.85979 5.61661 5.22025 5.26999C5.56883 4.90715 5.99666 4.62991 6.47025 4.45999C7.06925 4.23689 7.70125 4.11522 8.34025 4.09999C9.28025 3.99999 9.57025 3.99999 12.0003 3.99999C14.4303 3.99999 14.7203 3.99999 15.6603 3.99999C16.3024 4.01632 16.9375 4.13794 17.5403 4.35999C18.0096 4.53255 18.4336 4.80952 18.7803 5.16999C19.1431 5.51857 19.4203 5.9464 19.5903 6.41999C19.8351 7.02855 19.9737 7.67457 20.0003 8.32999C20.0003 9.32999 20.0503 9.57999 20.0503 12C20.0503 14.42 20.0003 14.71 20.0003 15.67H19.9403Z" fill="#F1F1F1" fill-opacity="0.7"/>
</svg>
