<svg width="403" height="450" viewBox="0 0 403 450" fill="none" xmlns="http://www.w3.org/2000/svg">
<rect y="56.5468" width="341" height="398" rx="16" transform="rotate(-9.54524 0 56.5468)" fill="#8CA8B8"/>
<rect x="35.2523" y="22" width="341" height="398" rx="16" transform="rotate(1.33207 35.2523 22)" fill="#8CA8B8" fill-opacity="0.38"/>
<path d="M201 163C170.2 163 145 188.2 145 219C145 249.8 170.2 275 201 275C231.8 275 257 249.8 257 219C257 188.2 231.8 163 201 163ZM178.04 240C171.88 240 166.84 234.96 166.84 228.8C166.84 222.64 171.88 217.6 178.04 217.6C184.2 217.6 189.24 222.64 189.24 228.8C189.24 234.96 184.2 240 178.04 240ZM224.8 236.92C219.76 240 213.04 238.04 209.96 233L194.28 205.84C191.2 200.8 193.16 194.08 198.2 191C203.24 187.92 209.96 189.88 213.04 194.92L228.72 222.08C231.8 227.4 229.84 234.12 224.8 236.92Z" fill="#0E0D0D"/>
<path d="M192.297 212.409C191.294 215.33 188.112 216.9 185.191 215.897C182.27 214.894 180.7 211.712 181.703 208.791C182.706 205.87 185.888 204.3 188.809 205.303C191.73 206.306 193.3 209.488 192.297 212.409Z" fill="#F5F5F5"/>
</svg>
